<svg xmlns="http://www.w3.org/2000/svg" width="12" height="18" viewBox="0 0 12 18">
  <g id="Iconly_Bold_Arrow---Down" data-name="Iconly/Bold/Arrow---Down" transform="translate(-6 -3)">
    <g id="Arrow---Down" transform="translate(6 3)">
      <path id="Path_22" data-name="Path 22" d="M5.993,7.835a27.291,27.291,0,0,1,3.688.216.4.4,0,0,0,.061.015l.251.05a5.082,5.082,0,0,1,1.016.282A1.815,1.815,0,0,1,12,10v.058a5.031,5.031,0,0,1-.408,1.343,22.044,22.044,0,0,1-3.967,5.761l-.045.045a5.089,5.089,0,0,1-.509.446A1.768,1.768,0,0,1,6.008,18a1.856,1.856,0,0,1-1.138-.375c-.058-.058-.305-.274-.51-.477A22.073,22.073,0,0,1,.336,11.257,4.828,4.828,0,0,1,0,10.058a2,2,0,0,1,.219-.91,1.886,1.886,0,0,1,.9-.808,9.79,9.79,0,0,1,1.064-.261A23.636,23.636,0,0,1,5.993,7.835ZM6,0A1.511,1.511,0,0,1,7.518,1.5L7.191,5.2a1.191,1.191,0,0,1-2.381,0L4.483,1.5A1.511,1.511,0,0,1,6,0Z"/>
    </g>
  </g>
</svg>
