<svg xmlns="http://www.w3.org/2000/svg" width="18" height="12" viewBox="0 0 18 12">
  <g id="Iconly_Bold_Arrow---Left" data-name="Iconly/Bold/Arrow---Left" transform="translate(-3 -6)">
    <g id="Arrow---Left" transform="translate(3 6)">
      <path id="Path_12" data-name="Path 12" d="M10.163,5.639l0,.354a27.291,27.291,0,0,1-.216,3.688l-.114.544a3.887,3.887,0,0,1-.233.783A1.815,1.815,0,0,1,8,12H7.942A5.031,5.031,0,0,1,6.6,11.592,22.643,22.643,0,0,1,1.006,7.8l-.379-.4a3.582,3.582,0,0,1-.28-.334A1.768,1.768,0,0,1,0,6.008,1.856,1.856,0,0,1,.375,4.87l.389-.42.087-.09A22.073,22.073,0,0,1,6.743.336L6.987.242A4.05,4.05,0,0,1,7.942,0a2,2,0,0,1,.91.219,1.886,1.886,0,0,1,.808.9,9.79,9.79,0,0,1,.261,1.064A22.282,22.282,0,0,1,10.163,5.639ZM18,6a1.511,1.511,0,0,1-1.5,1.518l-3.7-.327a1.191,1.191,0,0,1,0-2.381l3.7-.327A1.511,1.511,0,0,1,18,6Z" fill="#c9c4c4"/>
    </g>
  </g>
</svg>
