<svg xmlns="http://www.w3.org/2000/svg" width="30.152" height="21.062" viewBox="0 0 30.152 21.062">
  <path id="Icon_metro-books" data-name="Icon metro-books" d="M8.714,8.571H3.449a.88.88,0,0,0-.878.878V28.756a.88.88,0,0,0,.878.878H8.714a.88.88,0,0,0,.878-.878V9.449a.88.88,0,0,0-.878-.878Zm-.878,5.265H4.327V12.082h3.51v1.755ZM17.49,8.571H12.225a.88.88,0,0,0-.878.878V28.756a.88.88,0,0,0,.878.878H17.49a.88.88,0,0,0,.878-.878V9.449a.88.88,0,0,0-.878-.878Zm-.878,5.265H13.1V12.082h3.51Zm6.941-3.909-4.7,2.369a.88.88,0,0,0-.389,1.179l7.9,15.674a.88.88,0,0,0,1.179.389l4.7-2.369a.88.88,0,0,0,.389-1.179l-7.9-15.674a.88.88,0,0,0-1.179-.389Zm4.468,18.827a.878.878,0,1,1-.878-.878A.878.878,0,0,1,28.021,28.756Z" transform="translate(-2.571 -8.571)" fill="#c9c4c4"/>
</svg>
