<svg xmlns="http://www.w3.org/2000/svg" xmlns:xlink="http://www.w3.org/1999/xlink" width="29.969" height="29.129" viewBox="0 0 29.969 29.129">
  <defs>
    <linearGradient id="linear-gradient" x1="0.5" x2="0.5" y2="1" gradientUnits="objectBoundingBox">
      <stop offset="0" stop-color="#25f"/>
      <stop offset="1" stop-color="#1477ff"/>
    </linearGradient>
  </defs>
  <g id="Iconly_Bold_Home" data-name="Iconly/Bold/Home" transform="translate(-2.5 -2)">
    <g id="Home" transform="translate(2.5 2)">
      <path id="Path_1" data-name="Path 1" d="M10.465,27.343V22.889a2.158,2.158,0,0,1,2.246-2.058h4.533a2.353,2.353,0,0,1,1.588.6,1.975,1.975,0,0,1,.658,1.456v4.453a1.7,1.7,0,0,0,.562,1.263,2.027,2.027,0,0,0,1.373.524h3.093a5.7,5.7,0,0,0,3.854-1.455,4.784,4.784,0,0,0,1.6-3.529V11.458a3.5,3.5,0,0,0-1.412-2.77L18.035.984a5.2,5.2,0,0,0-6.228.1L1.525,8.687A3.521,3.521,0,0,0,0,11.458V24.132a5.239,5.239,0,0,0,5.451,5H8.474a1.875,1.875,0,0,0,1.949-1.774Z" fill="url(#linear-gradient)"/>
    </g>
  </g>
</svg>
