<svg xmlns="http://www.w3.org/2000/svg" width="20" height="20" viewBox="0 0 20 20">
  <g id="Iconly_Bold_Filter-2" data-name="Iconly/Bold/Filter-2" transform="translate(-2 -2)">
    <g id="Filter-2" transform="translate(2 2)">
      <path id="Path_9" data-name="Path 9" d="M7.28,13.824l4.855.015a.558.558,0,0,1,.548.565h0v2.731a.8.8,0,0,1-.453.724h0L7.823,19.929a.756.756,0,0,1-.738-.055.8.8,0,0,1-.355-.669h0V14.389a.557.557,0,0,1,.551-.565ZM17.872,0A2.16,2.16,0,0,1,20,2.192h0V3.724a2.223,2.223,0,0,1-.637,1.563h0l-6.505,6.58a.586.586,0,0,1-.422.177h0l-5.447-.017a.591.591,0,0,1-.437-.2h0L.575,5.257A2.229,2.229,0,0,1,0,3.758H0V2.193A2.161,2.161,0,0,1,2.128,0H17.872Z" fill="#c9c4c4"/>
    </g>
  </g>
</svg>
