<svg xmlns="http://www.w3.org/2000/svg" width="20" height="19.995" viewBox="0 0 20 19.995">
  <g id="Iconly_Bold_Discount" data-name="Iconly/Bold/Discount" transform="translate(-2 -2.001)">
    <g id="Discount" transform="translate(2 2.001)">
      <path id="Path_21" data-name="Path 21" d="M7.865.885A3.018,3.018,0,0,1,12.127.876h0l.73.729a1.5,1.5,0,0,0,1.06.441h1.03a3.013,3.013,0,0,1,3.011,3.009h0V6.086a1.5,1.5,0,0,0,.44,1.059h0l.72.72a3.029,3.029,0,0,1,.02,4.25h0l-.74.74a1.5,1.5,0,0,0-.44,1.061h0v1.029a3.014,3.014,0,0,1-3.011,3.011h-1.03a1.5,1.5,0,0,0-1.06.439h0l-.72.72a3,3,0,0,1-2.131.88,3.03,3.03,0,0,1-2.131-.869h0l-.73-.731a1.5,1.5,0,0,0-1.06-.439H5.054a3.014,3.014,0,0,1-3.011-3.011h0V13.916a1.54,1.54,0,0,0-.44-1.071h0l-.72-.71a3.022,3.022,0,0,1-.01-4.259h0l.73-.731a1.5,1.5,0,0,0,.44-1.07h0V5.055A3.013,3.013,0,0,1,5.054,2.046h1.03a1.5,1.5,0,0,0,1.06-.441h0ZM12.577,11.7a.875.875,0,1,0,.87.87A.874.874,0,0,0,12.577,11.7Zm.61-4.89a.871.871,0,0,0-1.23,0h0l-5.142,5.14a.881.881,0,0,0,0,1.24.858.858,0,0,0,1.23,0h0l5.142-5.139A.882.882,0,0,0,13.187,6.805Zm-5.752-.25a.875.875,0,1,0,.87.87A.879.879,0,0,0,7.435,6.555Z" fill="#25f"/>
    </g>
  </g>
</svg>
