<svg xmlns="http://www.w3.org/2000/svg" width="25.788" height="25.273" viewBox="0 0 25.788 25.273">
  <g id="Iconly_Bold_Search" data-name="Iconly/Bold/Search" transform="translate(-2 -2)">
    <g id="Search" transform="translate(2 2)">
      <path id="Path_8" data-name="Path 8" d="M20.141,19.781a1.29,1.29,0,0,1,1.8,0h0l3.294,2.606h.057a1.679,1.679,0,0,1,0,2.391,1.718,1.718,0,0,1-2.413,0h0l-2.734-3.07-.1-.115a1.35,1.35,0,0,1,.1-1.811ZM11.06,0a11.114,11.114,0,0,1,7.821,3.209,10.935,10.935,0,0,1-7.821,18.7A10.956,10.956,0,1,1,11.06,0Z" transform="translate(0 0)" fill="#c9c4c4"/>
    </g>
  </g>
</svg>
